<?xml version="1.0" encoding="utf-8"?>
<!-- Generator: Adobe Illustrator 19.2.0, SVG Export Plug-In . SVG Version: 6.00 Build 0)  -->
<svg version="1.1" id="Layer_1" xmlns="http://www.w3.org/2000/svg" xmlns:xlink="http://www.w3.org/1999/xlink" x="0px" y="0px"
	 viewBox="0 0 100.312 60" style="enable-background:new 0 0 100.312 60;" xml:space="preserve">
<style type="text/css">
	.st0{fill:none;stroke:#F2F2F2;stroke-miterlimit:10;}
</style>
<path class="st0" d="M100.153,1.028c-3.842,1.288-6.989,4.094-8.728,7.705c-1.928-0.753-4.025-1.167-6.22-1.167
	c-5.888,0-11.081,2.974-14.161,7.501c-1.213-0.318-2.486-0.487-3.799-0.487c-3.445,0-6.617,1.165-9.146,3.122
	c-2.271-3.216-6.014-5.317-10.251-5.317c-3.257,0-6.222,1.244-8.451,3.28c-1.593-0.86-3.417-1.349-5.354-1.349
	c-0.653,0-1.293,0.056-1.916,0.163c-3.446-5.829-9.793-9.739-17.055-9.739c-2.665,0-5.206,0.529-7.527,1.485
	C5.704,3.78,3.131,1.919,0.152,0.966"/>
</svg>
