<?xml version="1.0" encoding="utf-8"?>
<!-- Generator: Adobe Illustrator 19.2.0, SVG Export Plug-In . SVG Version: 6.00 Build 0)  -->
<svg version="1.1" id="Layer_1" xmlns="http://www.w3.org/2000/svg" xmlns:xlink="http://www.w3.org/1999/xlink" x="0px" y="0px"
	 viewBox="0 0 1920 937.164" style="enable-background:new 0 0 1920 937.164;" xml:space="preserve">
<style type="text/css">
	.st0{opacity:0.23;fill:#FFFFFF;enable-background:new    ;}
	.st1{opacity:0.28;fill:#FFFFFF;enable-background:new    ;}
	.st2{fill:none;stroke:#FFFFFF;stroke-width:2;stroke-miterlimit:10;}
	.st3{fill:#FFFFFF;}
	.st4{opacity:0.66;fill:none;stroke:#FFFFFF;stroke-width:0.25;stroke-miterlimit:10;}
	.st5{opacity:0.75;fill:none;stroke:#FFFFFF;stroke-miterlimit:10;}
	.st6{opacity:0.5;fill:none;stroke:#FFFFFF;stroke-width:0.5;stroke-miterlimit:10;}
	.st7{opacity:0.25;fill:none;stroke:#FFFFFF;stroke-width:0.5;stroke-miterlimit:10;}
</style>
<polygon class="st0" points="1920,358.193 1816.148,394.138 1530.096,444.309 1248.245,373.086 961.282,436.008 674.3,521.684 
	391.323,543 106.104,629.239 0,642.5 0,0 1920,0 "/>
<polygon class="st1" points="1920,937.164 0,937.164 0,642.5 106.104,629.239 391.323,543 674.3,521.684 961.282,436.008 
	1248.245,373.086 1530.096,444.309 1816.148,394.138 1920,358.193 "/>
<circle class="st2" cx="106.104" cy="629.239" r="6.01">
	<animate attributeName="opacity" dur="1.5s" values="0;1;0" repeatCount="indefinite" begin="0.1"></animate>
</circle>
<circle class="st2" cx="391.323" cy="543" r="6.01">
	<animate attributeName="opacity" dur="1.5s" values="0;1;0" repeatCount="indefinite" begin="0.4"></animate>
</circle>
<circle class="st2" cx="674.3" cy="521.684" r="6.01">
	<animate attributeName="opacity" dur="1.5s" values="0;1;0" repeatCount="indefinite" begin="0.7"></animate>
</circle>
<circle class="st2" cx="961.282" cy="436.008" r="6.01">
	<animate attributeName="opacity" dur="1.5s" values="0;1;0" repeatCount="indefinite" begin="1.0"></animate>
</circle>
<circle class="st2" cx="1248.245" cy="373.086" r="6.01">
	<animate attributeName="opacity" dur="1.5s" values="0;1;0" repeatCount="indefinite" begin="1.3"></animate>
</circle>
<circle class="st3" cx="1530.096" cy="444.309" r="6.01">
	<animate attributeName="opacity" dur="1.5s" values="0;1;0" repeatCount="indefinite" begin="1.6"></animate>
</circle>
<circle class="st2" cx="1816.148" cy="394.138" r="6.01">
	<animate attributeName="opacity" dur="1.5s" values="0;1;0" repeatCount="indefinite" begin="1.9"></animate>
</circle>
<line class="st4" x1="106.104" y1="0" x2="106.104" y2="937.164"/>
<line class="st4" x1="391.323" y1="0" x2="391.323" y2="937.164"/>
<line class="st4" x1="674.3" y1="0" x2="674.3" y2="937.164"/>
<line class="st4" x1="961.282" y1="0" x2="961.282" y2="937.164"/>
<line class="st4" x1="1248.245" y1="0" x2="1248.245" y2="937.164"/>
<line class="st4" x1="1530.096" y1="0" x2="1530.096" y2="937.164"/>
<line class="st4" x1="1816.148" y1="0" x2="1816.148" y2="937.164"/>
<circle class="st5" cx="1530.096" cy="444.309" r="12">
	<animate attributeName="opacity" dur="1s" values="0;1;0" repeatCount="indefinite" begin="0.1"></animate>
</circle>
<circle class="st6" cx="1530.096" cy="444.309" r="19">
	<animate attributeName="opacity" dur="1s" values="0;1;0" repeatCount="indefinite" begin="0.2"></animate>
</circle>
<circle class="st7" cx="1530.096" cy="444.309" r="25">
	<animate attributeName="opacity" dur="1s" values="0;1;0" repeatCount="indefinite" begin="0.3"></animate>
</circle>
</svg>
