<svg version="1.1" xmlns="http://www.w3.org/2000/svg" xmlns:xlink="http://www.w3.org/1999/xlink" x="0px" y="0px" viewBox="0 0 352.307 91.307" style="enable-background:new 0 0 352.307 91.307;" xml:space="preserve">
	<g>
		<path class="st1" d="M73.887,0H0.841C0.377,0,0,0.377,0,0.841v89.625c0,0.464,0.377,0.841,0.841,0.841h16.58
			c0.464,0,0.841-0.377,0.841-0.841V6.818c0-0.813,1.036-1.155,1.52-0.502l3.636,4.903c3.286,4.431,8.476,7.043,13.992,7.043h32.151
			c1.924,0,3.484,1.56,3.484,3.484v68.721c0,0.464,0.377,0.841,0.841,0.841h16.58c0.464,0,0.841-0.377,0.841-0.841V17.42
			C91.307,7.799,83.508,0,73.887,0z"/>
	</g>
	<g>
		<path class="st2" d="M119.888,23.115c0-2.736,2.16-4.825,5.041-4.825c2.664,0,4.896,2.088,4.896,4.825
			c0,2.88-2.232,4.968-4.896,4.968C122.048,28.083,119.888,25.995,119.888,23.115z M121.329,72.151V33.556h6.913v38.596H121.329z"/>
		<path class="st2" d="M138.968,33.556h6.769v5.472c2.304-4.104,6.769-6.48,12.241-6.48c7.993,0,15.266,5.185,15.266,16.202v23.402
			h-6.841V50.693c0-7.777-4.248-11.737-9.865-11.737c-6.265,0-10.657,4.896-10.657,11.81v21.386h-6.913V33.556z"/>
		<path class="st2" d="M182.023,23.115c0-2.736,2.16-4.825,5.041-4.825c2.664,0,4.896,2.088,4.896,4.825
			c0,2.88-2.232,4.968-4.896,4.968C184.184,28.083,182.023,25.995,182.023,23.115z M183.464,72.151V33.556h6.913v38.596H183.464z"/>
		<path class="st2" d="M226.306,69.847c-2.809,2.16-6.625,3.24-10.297,3.24c-8.353,0-12.313-5.473-12.313-14.473V39.46h-6.841
			v-5.904h6.913V19.875h6.769v13.681h13.681v5.904h-13.681v19.658c0,4.681,1.656,7.633,6.265,7.633c2.448,0,4.824-0.937,6.913-2.232
			L226.306,69.847z"/>
		<path class="st2" d="M230.406,23.115c0-2.736,2.16-4.825,5.041-4.825c2.664,0,4.896,2.088,4.896,4.825
			c0,2.88-2.232,4.968-4.896,4.968C232.566,28.083,230.406,25.995,230.406,23.115z M231.847,72.151V33.556h6.913v38.596H231.847z"/>
		<path class="st2" d="M248.982,56.598V33.556h6.913v22.826c0,6.265,3.528,10.297,9.649,10.297c6.192,0,9.721-4.032,9.721-10.297
			V33.556h6.841v23.042c0,10.225-6.265,16.489-16.562,16.489C255.463,73.087,248.982,66.679,248.982,56.598z"/>
		<path class="st2" d="M352.307,49.181v22.971h-6.912v-21.89c0-7.345-3.673-11.306-9.289-11.306
			c-6.049,0-10.297,4.608-10.297,11.449v21.746h-6.841V50.405c0-7.201-3.601-11.449-9.36-11.449
			c-5.977,0-10.369,4.536-10.369,11.593v21.603h-6.913V33.556h6.769v5.688c2.232-4.104,6.48-6.769,11.665-6.697
			c5.041,0,9.938,2.521,12.098,7.201c2.592-4.32,7.921-7.201,14.041-7.201C346.258,32.547,352.307,38.956,352.307,49.181z"/>
	</g>
</svg>
