<svg version="1.1" xmlns="http://www.w3.org/2000/svg" xmlns:xlink="http://www.w3.org/1999/xlink" x="0px" y="0px" viewBox="0 0 549.599 91.307" xml:space="preserve">
	<g class="neos">
		<path d="M73.887,0H0.841C0.377,0,0,0.377,0,0.841v89.625c0,0.464,0.376,0.841,0.841,0.841h16.58
			c0.464,0,0.841-0.377,0.841-0.841V6.818c0-0.813,1.036-1.155,1.52-0.502l3.636,4.903c3.286,4.431,8.476,7.043,13.992,7.043h32.151
			c1.924,0,3.484,1.56,3.484,3.484v68.721c0,0.464,0.376,0.841,0.841,0.841h16.58c0.464,0,0.841-0.377,0.841-0.841V17.42
			C91.307,7.799,83.508,0,73.887,0z"/>
		<path d="M379.415,0h-56.466h0c-9.621,0-17.42,7.799-17.42,17.42v56.466c0,9.621,7.799,17.421,17.42,17.421h56.467
			c9.621,0,17.42-7.799,17.42-17.421V17.42C396.835,7.799,389.036,0,379.415,0z M378.574,69.562c0,1.924-1.56,3.484-3.484,3.484
			h-47.816c-1.924,0-3.484-1.56-3.484-3.484V6.818c0-0.813,1.036-1.155,1.52-0.502l3.636,4.903
			c3.286,4.431,8.476,7.043,13.992,7.043h32.151c1.924,0,3.484,1.56,3.484,3.484V69.562z"/>
		<path d="M226.651,54.785c9.621,0,17.421-7.799,17.421-17.421V17.42c0-9.621-7.799-17.42-17.421-17.42h-56.463
			c-9.623,0-17.424,7.801-17.424,17.424v56.463c0,9.621,7.799,17.421,17.421,17.421h72.987c0.597,0,1.005-0.603,0.783-1.157
			l-6.501-16.229c-0.212-0.529-0.724-0.875-1.294-0.875h-61.65c-1.924,0-3.484-1.56-3.484-3.484V54.785H226.651z M171.025,43.341
			v-6.818V21.746c0-1.924,1.56-3.484,3.484-3.484h47.816c1.924,0,3.484,1.56,3.484,3.484v11.293c0,1.924-1.56,3.484-3.484,3.484
			h-32.151c-5.516,0-10.706,2.612-13.992,7.043l-3.636,4.903c-0.484,0.653-1.52,0.31-1.52-0.502V43.341z"/>
		<path d="M532.178,36.523h-52.141c-1.924,0-3.484-1.56-3.484-3.484V6.818c0-0.813,1.036-1.155,1.52-0.502l3.636,4.903
			c3.286,4.431,8.476,7.043,13.992,7.043h43.895c0.57,0,1.082-0.347,1.294-0.876l6.504-16.229C547.617,0.603,547.209,0,546.612,0
			h-70.9c-9.621,0-17.421,7.799-17.421,17.42v19.943c0,9.621,7.799,17.421,17.421,17.421h52.141c1.924,0,3.484,1.56,3.484,3.484
			v11.293c0,1.924-1.56,3.484-3.484,3.484h-61.65c-0.57,0-1.082,0.347-1.294,0.876l-6.459,16.23
			c-0.22,0.554,0.188,1.155,0.783,1.155h72.945c9.621,0,17.42-7.799,17.42-17.421V53.943
			C549.599,44.322,541.799,36.523,532.178,36.523z"/>
	</g>
</svg>
