<svg version="1.1" xmlns="http://www.w3.org/2000/svg" xmlns:xlink="http://www.w3.org/1999/xlink" x="0px" y="0px" viewBox="0 0 91.307 91.307" xml:space="preserve">
	<g>
		<path class="st1" d="M73.887,0H0.841C0.377,0,0,0.377,0,0.841v89.625c0,0.464,0.377,0.841,0.841,0.841h16.58
			c0.464,0,0.841-0.377,0.841-0.841V6.818c0-0.813,1.036-1.155,1.52-0.502l3.636,4.903c3.286,4.431,8.476,7.043,13.992,7.043h32.151
			c1.924,0,3.484,1.56,3.484,3.484v68.721c0,0.464,0.377,0.841,0.841,0.841h16.58c0.464,0,0.841-0.377,0.841-0.841V17.42
			C91.307,7.799,83.508,0,73.887,0z"/>
	</g>
</svg>
