<?xml version="1.0" encoding="utf-8"?>
<!-- Generator: Adobe Illustrator 19.2.0, SVG Export Plug-In . SVG Version: 6.00 Build 0)  -->
<svg version="1.1" id="svg115845" xmlns:svg="http://www.w3.org/2000/svg"
	 xmlns="http://www.w3.org/2000/svg" xmlns:xlink="http://www.w3.org/1999/xlink" x="0px" y="0px" viewBox="0 0 662.846 212.65"
	 style="enable-background:new 0 0 662.846 212.65;" xml:space="preserve">
<style type="text/css">
	.st0{fill:#F80000;}
	.st1{fill:#454545;}
</style>
<g id="layer1" transform="translate(-702.6538,-712.5837)">
	<g id="g16337">
		<path id="path16197" class="st0" d="M980.651,771.7h40.652l-21.495-34.583l-39.451,62.527h-17.955l47.986-75.108
			c2.086-3.035,5.564-4.868,9.42-4.868c3.73,0,7.207,1.77,9.23,4.742l48.175,75.235h-17.955l-8.472-13.972h-41.158L980.651,771.7z
			 M1167.157,785.673v-65.246h-15.237v71.631c0,1.96,0.759,3.857,2.213,5.311c1.454,1.454,3.414,2.276,5.563,2.276h69.482
			l8.978-13.972H1167.157z M915.089,773.976c14.794,0,26.807-11.949,26.807-26.743s-12.012-26.806-26.807-26.806h-66.656v79.218
			h15.231v-65.246h50.414c7.081,0,12.771,5.753,12.771,12.834c0,7.081-5.69,12.834-12.771,12.834l-42.953-0.063l45.482,39.641
			h22.128l-30.6-25.668H915.089z M754.675,799.645c-21.869,0-39.616-17.702-39.616-39.577c0-21.875,17.747-39.641,39.616-39.641
			h46.045c21.875,0,39.609,17.766,39.609,39.641c0,21.875-17.734,39.577-39.609,39.577H754.675z M799.696,785.673
			c14.168,0,25.643-11.443,25.643-25.605c0-14.162-11.475-25.668-25.643-25.668h-44.003c-14.162,0-25.643,11.506-25.643,25.668
			c0,14.162,11.481,25.605,25.643,25.605H799.696z M1089.014,799.645c-21.875,0-39.64-17.702-39.64-39.577
			c0-21.875,17.765-39.641,39.64-39.641h54.688l-8.914,13.972h-44.762c-14.162,0-25.668,11.506-25.668,25.668
			c0,14.162,11.506,25.605,25.668,25.605h54.94l-8.977,13.972H1089.014z M1275.331,785.673c-11.696,0-21.622-7.84-24.657-18.651
			h65.119l8.978-13.972h-74.097c3.035-10.748,12.961-18.651,24.657-18.651h44.698l9.041-13.972h-54.751
			c-21.875,0-39.64,17.766-39.64,39.641c0,21.875,17.765,39.577,39.64,39.577h46.974l8.977-13.972H1275.331"/>
		<path id="path16199" class="st0" d="M1337.226,728.836c0-3.857,3.097-6.954,6.954-6.954c3.92,0,7.018,3.098,7.018,6.954
			c0,3.92-3.098,7.018-7.018,7.018C1340.323,735.853,1337.226,732.755,1337.226,728.836z M1344.18,737.813
			c4.931,0,8.914-3.983,8.914-8.914s-3.983-8.914-8.914-8.914c-4.868,0-8.851,3.983-8.851,8.914S1339.312,737.813,1344.18,737.813z
			 M1343.358,723.588c1.391,0,1.96,0.063,2.592,0.316c1.77,0.569,1.96,2.15,1.96,2.782c0,0.126,0,0.443-0.126,0.822
			c-0.063,0.379-0.316,1.138-1.201,1.707c-0.126,0.063-0.19,0.126-0.442,0.253l2.276,4.109h-2.213l-2.023-3.793h-1.391v3.793h-1.96
			v-9.989H1343.358z M1344.054,728.14c0.632-0.063,1.264-0.063,1.644-0.632c0.19-0.253,0.253-0.506,0.253-0.885
			c0-0.506-0.316-0.948-0.759-1.201c-0.443-0.19-0.885-0.19-1.833-0.19h-0.569v2.908H1344.054"/>
	</g>
</g>
<path class="st1" d="M73.06,125.767c5.677,5.378,8.665,11.653,9.263,18.226H71.566c-1.195-5.079-3.586-9.263-7.171-12.25
	c-3.585-2.988-8.665-4.482-14.94-4.482c-7.769,0-14.043,2.689-18.824,8.366c-4.781,5.677-7.171,14.043-7.171,25.696
	c0,9.561,2.092,17.031,6.573,23.007c4.482,5.976,10.756,8.964,19.421,8.964c8.067,0,14.043-2.988,18.226-9.263
	c2.092-3.287,3.884-7.47,4.781-12.848h10.756c-0.896,8.366-4.183,15.537-9.263,21.513c-6.275,6.872-14.94,10.458-25.696,10.458
	c-9.263,0-17.031-2.988-23.306-8.665c-8.366-7.47-12.549-19.123-12.549-34.959c0-11.952,2.988-21.812,9.263-29.282
	c6.872-8.366,16.135-12.549,27.788-12.549C59.615,117.7,67.383,120.389,73.06,125.767L73.06,125.767z"/>
<path class="st1" d="M96.964,120.09h9.86v80.674h-9.86V120.09z"/>
<path class="st1" d="M165.088,147.579c5.079,5.079,7.769,12.549,7.769,22.409c0,9.561-2.39,17.33-6.872,23.604
	c-4.482,6.275-11.653,9.263-21.214,9.263c-8.067,0-14.342-2.689-19.123-8.067s-7.171-12.848-7.171-22.111
	c0-9.86,2.39-17.629,7.47-23.604c5.079-5.976,11.653-8.665,20.019-8.665C153.734,140.109,160.009,142.798,165.088,147.579
	L165.088,147.579z M159.112,186.721c2.39-5.079,3.586-10.458,3.586-16.434c0-5.378-0.896-9.86-2.689-13.446
	c-2.689-5.378-7.47-8.067-14.342-8.067c-5.976,0-10.458,2.39-13.147,6.872c-2.689,4.482-4.183,10.159-4.183,16.732
	c0,6.275,1.494,11.354,4.183,15.537s7.171,6.275,12.848,6.275C152.24,194.19,156.722,191.8,159.112,186.721L159.112,186.721z"/>
<path class="st1" d="M195.863,141.902v39.142c0,2.988,0.598,5.378,1.494,7.47c1.793,3.585,4.781,5.378,9.561,5.378
	c6.573,0,11.354-2.988,13.744-9.263c1.195-3.287,2.092-7.769,2.092-13.446v-28.983h9.86v58.862h-9.263v-8.665
	c-1.195,2.092-2.689,4.183-4.781,5.677c-3.586,2.988-8.067,4.482-13.446,4.482c-8.366,0-13.744-2.689-16.732-8.366
	c-1.494-2.988-2.39-6.872-2.39-11.952v-40.337C186.003,141.902,195.863,141.902,195.863,141.902z"/>
<path class="st1" d="M281.616,143.695c1.793,1.195,3.884,2.988,5.976,5.677v-29.879h9.561v80.972h-8.964v-8.067
	c-2.39,3.585-5.079,6.275-8.067,7.769c-3.287,1.494-6.872,2.39-10.757,2.39c-6.573,0-12.25-2.689-17.031-8.366
	c-4.781-5.378-7.171-12.848-7.171-22.111c0-8.665,2.092-16.135,6.573-22.409s10.458-9.561,18.824-9.561
	C275.043,140.707,278.629,141.902,281.616,143.695z M259.506,187.916c2.689,4.183,6.872,6.275,12.848,6.275
	c4.482,0,8.366-2.092,11.354-5.976c2.988-3.884,4.482-9.561,4.482-17.031s-1.494-12.848-4.482-16.434s-6.872-5.378-11.354-5.378
	c-5.079,0-8.964,1.793-11.952,5.677c-2.988,3.884-4.482,9.561-4.482,16.732C255.622,178.355,257.116,183.434,259.506,187.916z"/>
</svg>
