<svg xmlns="http://www.w3.org/2000/svg" viewBox="0 0 517.99 438.17"><defs><style>.cls-1{fill:none;stroke:#242e45;stroke-miterlimit:10;stroke-width:1.8px;}</style></defs><title>pattern</title><g id="Layer_2" data-name="Layer 2"><g id="Layer_1-2" data-name="Layer 1"><polyline class="cls-1" points="159.73 69.81 179.58 81.28 199.43 92.74 219.29 81.28 239.14 69.81 239.14 46.89 239.14 23.96 219.29 12.5 199.43 1.04 179.58 12.5 159.73 23.96 159.73 46.89 179.58 58.35"/><line class="cls-1" x1="179.58" y1="35.43" x2="159.73" y2="23.96"/><polyline class="cls-1" points="199.43 92.74 199.43 69.81 199.43 46.89 219.29 35.43 239.14 23.96"/><polyline class="cls-1" points="219.29 12.5 179.58 35.43 179.58 81.28"/><line class="cls-1" x1="219.29" y1="35.43" x2="219.29" y2="81.28"/><polyline class="cls-1" points="0.9 69.81 20.75 81.28 40.61 92.74 60.46 81.28 80.31 69.81 80.31 46.89 80.31 23.96 60.46 12.5 40.61 1.04 20.75 12.5 0.9 23.96 0.9 46.89 20.75 58.35"/><line class="cls-1" x1="20.75" y1="35.43" x2="0.9" y2="23.96"/><polyline class="cls-1" points="40.61 92.74 40.61 69.81 40.61 46.89 60.46 35.43 80.31 23.96"/><polyline class="cls-1" points="60.46 12.5 20.75 35.43 20.75 81.28"/><line class="cls-1" x1="60.46" y1="35.43" x2="60.46" y2="81.28"/><polyline class="cls-1" points="199.43 138.59 179.58 150.05 159.73 161.51 139.87 150.05 120.02 138.59 120.02 115.66 120.02 92.74 139.87 81.28 159.73 69.81 179.58 81.28 199.43 92.74 199.43 115.66 179.58 127.13"/><line class="cls-1" x1="179.58" y1="104.2" x2="199.43" y2="92.74"/><polyline class="cls-1" points="159.73 161.51 159.73 138.59 159.73 115.66 139.87 104.2 120.02 92.74"/><polyline class="cls-1" points="139.87 81.28 179.58 104.2 179.58 150.05"/><line class="cls-1" x1="139.87" y1="104.2" x2="139.87" y2="150.05"/><polyline class="cls-1" points="318.55 69.81 338.41 81.28 358.26 92.74 378.11 81.28 397.97 69.81 397.97 46.89 397.97 23.96 378.11 12.5 358.26 1.04 338.41 12.5 318.55 23.96 318.55 46.89 338.41 58.35"/><line class="cls-1" x1="338.41" y1="35.43" x2="318.55" y2="23.96"/><polyline class="cls-1" points="358.26 92.74 358.26 69.81 358.26 46.89 378.11 35.43 397.97 23.96"/><polyline class="cls-1" points="378.11 12.5 338.41 35.43 338.41 81.28"/><line class="cls-1" x1="378.11" y1="35.43" x2="378.11" y2="81.28"/><polyline class="cls-1" points="318.55 161.51 298.7 150.05 278.85 138.59 278.85 115.66 278.85 92.74 298.7 81.28 318.55 69.81 338.41 81.28 358.26 92.74 358.26 115.66 338.41 127.13"/><line class="cls-1" x1="338.41" y1="104.2" x2="358.26" y2="92.74"/><polyline class="cls-1" points="318.55 161.51 318.55 138.59 318.55 115.66 298.7 104.2 278.85 92.74"/><polyline class="cls-1" points="298.7 81.28 338.41 104.2 338.41 150.05"/><line class="cls-1" x1="298.7" y1="104.2" x2="298.7" y2="150.05"/><polyline class="cls-1" points="477.38 161.51 457.53 150.05 437.67 138.59 437.67 115.66 437.67 92.74 457.53 81.28 477.38 69.81 497.24 81.28 517.09 92.74 517.09 115.66 497.24 127.13"/><line class="cls-1" x1="497.23" y1="104.2" x2="517.09" y2="92.74"/><polyline class="cls-1" points="477.38 161.51 477.38 138.59 477.38 115.66 457.53 104.2 437.67 92.74"/><polyline class="cls-1" points="457.53 81.28 497.24 104.2 497.24 150.05"/><line class="cls-1" x1="457.53" y1="104.2" x2="457.53" y2="150.05"/><polyline class="cls-1" points="318.55 46.89 318.55 23.96 298.7 12.5 278.85 1.04"/><polyline class="cls-1" points="318.55 23.96 298.7 35.43 278.85 46.89 258.99 35.43 239.14 23.96"/><polyline class="cls-1" points="278.85 92.74 278.85 69.81 258.99 58.35"/><polyline class="cls-1" points="258.99 35.43 258.99 81.28 278.85 92.74 298.7 81.28 318.55 69.81"/><polyline class="cls-1" points="298.7 81.28 298.7 35.43 258.99 12.5 239.14 23.96 239.14 46.89 239.14 69.81"/><line class="cls-1" x1="318.55" y1="46.89" x2="278.85" y2="69.81"/><polyline class="cls-1" points="358.26 115.66 358.26 92.74 378.11 81.28 397.97 69.81"/><polyline class="cls-1" points="358.26 92.74 378.11 104.2 397.97 115.66 417.82 104.2 437.67 92.74"/><polyline class="cls-1" points="397.97 161.51 397.97 138.59 417.82 127.13"/><polyline class="cls-1" points="417.82 104.2 417.82 150.05 397.97 161.51 378.11 150.05 358.26 138.59"/><polyline class="cls-1" points="378.11 150.05 378.11 104.2 417.82 81.28 437.67 92.74 437.67 115.66 437.67 138.59"/><line class="cls-1" x1="358.26" y1="115.66" x2="397.97" y2="138.59"/><polyline class="cls-1" points="40.61 115.66 40.61 92.74 60.46 81.28 80.31 69.81"/><polyline class="cls-1" points="40.61 92.74 60.46 104.2 80.31 115.66 100.17 104.2 120.02 92.74"/><polyline class="cls-1" points="80.31 161.51 80.31 138.59 100.17 127.13"/><polyline class="cls-1" points="100.17 104.2 100.17 150.05 80.31 161.51 60.46 150.05 40.61 138.59"/><polyline class="cls-1" points="60.46 150.05 60.46 104.2 100.17 81.28 120.02 92.74 120.02 115.66 120.02 138.59"/><line class="cls-1" x1="40.61" y1="115.66" x2="80.31" y2="138.59"/><polyline class="cls-1" points="199.43 115.66 199.43 92.74 219.29 81.28 239.14 69.81"/><polyline class="cls-1" points="199.43 92.74 219.29 104.2 239.14 115.66 258.99 104.2 278.85 92.74"/><polyline class="cls-1" points="239.14 161.51 239.14 138.59 258.99 127.13"/><polyline class="cls-1" points="258.99 104.2 258.99 150.05 239.14 161.51 219.29 150.05 199.43 138.59"/><polyline class="cls-1" points="219.29 150.05 219.29 104.2 258.99 81.28 278.85 92.74 278.85 115.66 278.85 138.59"/><line class="cls-1" x1="199.43" y1="115.66" x2="239.14" y2="138.59"/><polyline class="cls-1" points="477.38 23.96 457.53 35.43 437.67 46.89 417.82 35.43 397.97 23.96"/><polyline class="cls-1" points="437.67 92.74 437.67 69.81 417.82 58.35"/><polyline class="cls-1" points="417.82 35.43 417.82 81.28 437.67 92.74 457.53 81.28 477.38 69.81"/><polyline class="cls-1" points="457.53 81.28 457.53 35.43 417.82 12.5 397.97 23.96 397.97 46.89 397.97 69.81"/><polyline class="cls-1" points="437.67 69.81 477.38 46.89 477.38 23.96 457.53 12.5 437.67 1.04"/><polyline class="cls-1" points="159.73 46.89 159.73 23.96 139.87 12.5 120.02 1.04"/><polyline class="cls-1" points="159.73 23.96 139.87 35.43 120.02 46.89 100.17 35.43 80.31 23.96"/><polyline class="cls-1" points="120.02 92.74 120.02 69.81 100.17 58.35"/><polyline class="cls-1" points="100.17 35.43 100.17 81.28 120.02 92.74 139.87 81.28 159.73 69.81"/><polyline class="cls-1" points="139.87 81.28 139.87 35.43 100.17 12.5 80.31 23.96 80.31 46.89 80.31 69.81"/><line class="cls-1" x1="159.73" y1="46.89" x2="120.02" y2="69.81"/><polyline class="cls-1" points="159.73 207.36 179.58 218.82 199.43 230.29 219.29 218.82 239.14 207.36 239.14 184.44 239.14 161.51 219.29 150.05 199.43 138.59 179.58 150.05 159.73 161.51 159.73 184.44 179.58 195.9"/><line class="cls-1" x1="179.58" y1="172.97" x2="159.73" y2="161.51"/><polyline class="cls-1" points="199.43 230.29 199.43 207.36 199.43 184.44 219.29 172.97 239.14 161.51"/><polyline class="cls-1" points="219.29 150.05 179.58 172.97 179.58 218.82"/><line class="cls-1" x1="219.29" y1="172.97" x2="219.29" y2="218.82"/><polyline class="cls-1" points="0.9 207.36 20.75 218.82 40.61 230.29 60.46 218.82 80.31 207.36 80.31 184.44 80.31 161.51 60.46 150.05 40.61 138.59 20.75 150.05 0.9 161.51 0.9 184.44 20.75 195.9"/><line class="cls-1" x1="20.75" y1="172.97" x2="0.9" y2="161.51"/><polyline class="cls-1" points="40.61 230.29 40.61 207.36 40.61 184.44 60.46 172.97 80.31 161.51"/><polyline class="cls-1" points="60.46 150.05 20.75 172.97 20.75 218.82"/><line class="cls-1" x1="60.46" y1="172.97" x2="60.46" y2="218.82"/><polyline class="cls-1" points="199.43 276.14 179.58 287.6 159.73 299.06 139.87 287.6 120.02 276.14 120.02 253.21 120.02 230.29 139.87 218.82 159.73 207.36 179.58 218.82 199.43 230.29 199.43 253.21 179.58 264.67"/><line class="cls-1" x1="179.58" y1="241.75" x2="199.43" y2="230.29"/><polyline class="cls-1" points="159.73 299.06 159.73 276.14 159.73 253.21 139.87 241.75 120.02 230.29"/><polyline class="cls-1" points="139.87 218.82 179.58 241.75 179.58 287.6"/><line class="cls-1" x1="139.87" y1="241.75" x2="139.87" y2="287.6"/><polyline class="cls-1" points="318.55 207.36 338.41 218.82 358.26 230.29 378.11 218.82 397.97 207.36 397.97 184.44 397.97 161.51 378.11 150.05 358.26 138.59 338.41 150.05 318.55 161.51 318.55 184.44 338.41 195.9"/><line class="cls-1" x1="338.41" y1="172.97" x2="318.55" y2="161.51"/><polyline class="cls-1" points="358.26 230.29 358.26 207.36 358.26 184.44 378.11 172.97 397.97 161.51"/><polyline class="cls-1" points="378.11 150.05 338.41 172.97 338.41 218.82"/><line class="cls-1" x1="378.11" y1="172.97" x2="378.11" y2="218.82"/><polyline class="cls-1" points="318.55 299.06 298.7 287.6 278.85 276.14 278.85 253.21 278.85 230.29 298.7 218.82 318.55 207.36 338.41 218.82 358.26 230.29 358.26 253.21 338.41 264.67"/><line class="cls-1" x1="338.41" y1="241.75" x2="358.26" y2="230.29"/><polyline class="cls-1" points="318.55 299.06 318.55 276.14 318.55 253.21 298.7 241.75 278.85 230.29"/><polyline class="cls-1" points="298.7 218.82 338.41 241.75 338.41 287.6"/><line class="cls-1" x1="298.7" y1="241.75" x2="298.7" y2="287.6"/><polyline class="cls-1" points="477.38 299.06 457.53 287.6 437.67 276.14 437.67 253.21 437.67 230.29 457.53 218.82 477.38 207.36 497.24 218.82 517.09 230.29 517.09 253.21 497.24 264.67"/><line class="cls-1" x1="497.23" y1="241.75" x2="517.09" y2="230.29"/><polyline class="cls-1" points="477.38 299.06 477.38 276.14 477.38 253.21 457.53 241.75 437.67 230.29"/><polyline class="cls-1" points="457.53 218.82 497.24 241.75 497.24 287.6"/><line class="cls-1" x1="457.53" y1="241.75" x2="457.53" y2="287.6"/><polyline class="cls-1" points="318.55 184.44 318.55 161.51 298.7 150.05 278.85 138.59"/><polyline class="cls-1" points="318.55 161.51 298.7 172.97 278.85 184.44 258.99 172.97 239.14 161.51"/><polyline class="cls-1" points="278.85 230.29 278.85 207.36 258.99 195.9"/><polyline class="cls-1" points="258.99 172.97 258.99 218.82 278.85 230.29 298.7 218.82 318.55 207.36"/><polyline class="cls-1" points="298.7 218.82 298.7 172.97 258.99 150.05 239.14 161.51 239.14 184.44 239.14 207.36"/><line class="cls-1" x1="318.55" y1="184.44" x2="278.85" y2="207.36"/><polyline class="cls-1" points="358.26 253.21 358.26 230.29 378.11 218.82 397.97 207.36"/><polyline class="cls-1" points="358.26 230.29 378.11 241.75 397.97 253.21 417.82 241.75 437.67 230.29"/><polyline class="cls-1" points="397.97 299.06 397.97 276.14 417.82 264.67"/><polyline class="cls-1" points="417.82 241.75 417.82 287.6 397.97 299.06 378.11 287.6 358.26 276.14"/><polyline class="cls-1" points="378.11 287.6 378.11 241.75 417.82 218.82 437.67 230.29 437.67 253.21 437.67 276.14"/><line class="cls-1" x1="358.26" y1="253.21" x2="397.97" y2="276.14"/><polyline class="cls-1" points="40.61 253.21 40.61 230.29 60.46 218.82 80.31 207.36"/><polyline class="cls-1" points="40.61 230.29 60.46 241.75 80.31 253.21 100.17 241.75 120.02 230.29"/><polyline class="cls-1" points="80.31 299.06 80.31 276.14 100.17 264.67"/><polyline class="cls-1" points="100.17 241.75 100.17 287.6 80.31 299.06 60.46 287.6 40.61 276.14"/><polyline class="cls-1" points="60.46 287.6 60.46 241.75 100.17 218.82 120.02 230.29 120.02 253.21 120.02 276.14"/><line class="cls-1" x1="40.61" y1="253.21" x2="80.31" y2="276.14"/><polyline class="cls-1" points="199.43 253.21 199.43 230.29 219.29 218.82 239.14 207.36"/><polyline class="cls-1" points="199.43 230.29 219.29 241.75 239.14 253.21 258.99 241.75 278.85 230.29"/><polyline class="cls-1" points="239.14 299.06 239.14 276.14 258.99 264.67"/><polyline class="cls-1" points="258.99 241.75 258.99 287.6 239.14 299.06 219.29 287.6 199.43 276.14"/><polyline class="cls-1" points="219.29 287.6 219.29 241.75 258.99 218.82 278.85 230.29 278.85 253.21 278.85 276.14"/><line class="cls-1" x1="199.43" y1="253.21" x2="239.14" y2="276.14"/><polyline class="cls-1" points="477.38 161.51 457.53 172.97 437.67 184.44 417.82 172.97 397.97 161.51"/><polyline class="cls-1" points="437.67 230.29 437.67 207.36 417.82 195.9"/><polyline class="cls-1" points="417.82 172.97 417.82 218.82 437.67 230.29 457.53 218.82 477.38 207.36"/><polyline class="cls-1" points="457.53 218.82 457.53 172.97 417.82 150.05 397.97 161.51 397.97 184.44 397.97 207.36"/><polyline class="cls-1" points="437.67 207.36 477.38 184.44 477.38 161.51 457.53 150.05 437.67 138.59"/><polyline class="cls-1" points="159.73 184.44 159.73 161.51 139.87 150.05 120.02 138.59"/><polyline class="cls-1" points="159.73 161.51 139.87 172.97 120.02 184.44 100.17 172.97 80.31 161.51"/><polyline class="cls-1" points="120.02 230.29 120.02 207.36 100.17 195.9"/><polyline class="cls-1" points="100.17 172.97 100.17 218.82 120.02 230.29 139.87 218.82 159.73 207.36"/><polyline class="cls-1" points="139.87 218.82 139.87 172.97 100.17 150.05 80.31 161.51 80.31 184.44 80.31 207.36"/><line class="cls-1" x1="159.73" y1="184.44" x2="120.02" y2="207.36"/><polyline class="cls-1" points="159.73 344.91 179.58 356.37 199.43 367.83 219.29 356.37 239.14 344.91 239.14 321.99 239.14 299.06 219.29 287.6 199.43 276.14 179.58 287.6 159.73 299.06 159.73 321.99 179.58 333.45"/><line class="cls-1" x1="179.58" y1="310.52" x2="159.73" y2="299.06"/><polyline class="cls-1" points="199.43 367.83 199.43 344.91 199.43 321.99 219.29 310.52 239.14 299.06"/><polyline class="cls-1" points="219.29 287.6 179.58 310.52 179.58 356.37"/><line class="cls-1" x1="219.29" y1="310.52" x2="219.29" y2="356.37"/><polyline class="cls-1" points="0.9 344.91 20.75 356.37 40.61 367.83 60.46 356.37 80.31 344.91 80.31 321.99 80.31 299.06 60.46 287.6 40.61 276.14 20.75 287.6 0.9 299.06 0.9 321.99 20.75 333.45"/><line class="cls-1" x1="20.75" y1="310.52" x2="0.9" y2="299.06"/><polyline class="cls-1" points="40.61 367.83 40.61 344.91 40.61 321.99 60.46 310.52 80.31 299.06"/><polyline class="cls-1" points="60.46 287.6 20.75 310.52 20.75 356.37"/><line class="cls-1" x1="60.46" y1="310.52" x2="60.46" y2="356.37"/><polyline class="cls-1" points="199.43 413.68 179.58 425.15 159.73 436.61 139.87 425.15 120.02 413.68 120.02 390.76 120.02 367.83 139.87 356.37 159.73 344.91 179.58 356.37 199.43 367.83 199.43 390.76 179.58 402.22"/><line class="cls-1" x1="179.58" y1="379.3" x2="199.43" y2="367.83"/><polyline class="cls-1" points="159.73 436.61 159.73 413.68 159.73 390.76 139.87 379.3 120.02 367.83"/><polyline class="cls-1" points="139.87 356.37 179.58 379.3 179.58 425.15"/><line class="cls-1" x1="139.87" y1="379.3" x2="139.87" y2="425.15"/><polyline class="cls-1" points="318.55 344.91 338.41 356.37 358.26 367.83 378.11 356.37 397.97 344.91 397.97 321.99 397.97 299.06 378.11 287.6 358.26 276.14 338.41 287.6 318.55 299.06 318.55 321.99 338.41 333.45"/><line class="cls-1" x1="338.41" y1="310.52" x2="318.55" y2="299.06"/><polyline class="cls-1" points="358.26 367.83 358.26 344.91 358.26 321.99 378.11 310.52 397.97 299.06"/><polyline class="cls-1" points="378.11 287.6 338.41 310.52 338.41 356.37"/><line class="cls-1" x1="378.11" y1="310.52" x2="378.11" y2="356.37"/><line class="cls-1" x1="338.41" y1="379.3" x2="358.26" y2="367.83"/><polyline class="cls-1" points="278.85 367.83 298.7 379.3 318.55 390.76 318.55 413.68 318.55 436.61 298.7 425.15 278.85 413.68 278.85 390.76 278.85 367.83 298.7 356.37 318.55 344.91 338.41 356.37 358.26 367.83 358.26 390.76 338.41 402.22"/><polyline class="cls-1" points="298.7 356.37 338.41 379.3 338.41 425.15"/><line class="cls-1" x1="298.7" y1="379.3" x2="298.7" y2="425.15"/><line class="cls-1" x1="497.23" y1="379.3" x2="517.09" y2="367.83"/><polyline class="cls-1" points="437.67 367.83 457.53 379.3 477.38 390.76 477.38 413.68 477.38 436.61 457.53 425.15 437.67 413.68 437.67 390.76 437.67 367.83 457.53 356.37 477.38 344.91 497.24 356.37 517.09 367.83 517.09 390.76 497.24 402.22"/><polyline class="cls-1" points="457.53 356.37 497.24 379.3 497.24 425.15"/><line class="cls-1" x1="457.53" y1="379.3" x2="457.53" y2="425.15"/><polyline class="cls-1" points="318.55 321.99 318.55 299.06 298.7 287.6 278.85 276.14"/><polyline class="cls-1" points="318.55 299.06 298.7 310.52 278.85 321.99 258.99 310.52 239.14 299.06"/><polyline class="cls-1" points="278.85 367.83 278.85 344.91 258.99 333.45"/><polyline class="cls-1" points="258.99 310.52 258.99 356.37 278.85 367.83 298.7 356.37 318.55 344.91"/><polyline class="cls-1" points="298.7 356.37 298.7 310.52 258.99 287.6 239.14 299.06 239.14 321.99 239.14 344.91"/><line class="cls-1" x1="318.55" y1="321.98" x2="278.85" y2="344.91"/><polyline class="cls-1" points="358.26 390.76 358.26 367.83 378.11 356.37 397.97 344.91"/><polyline class="cls-1" points="358.26 367.83 378.11 379.3 397.97 390.76 417.82 379.3 437.67 367.83"/><polyline class="cls-1" points="397.97 436.61 397.97 413.68 417.82 402.22"/><polyline class="cls-1" points="417.82 379.3 417.82 425.15 397.97 436.61 378.11 425.15 358.26 413.68"/><polyline class="cls-1" points="378.11 425.15 378.11 379.3 417.82 356.37 437.67 367.83 437.67 390.76 437.67 413.68"/><line class="cls-1" x1="358.26" y1="390.76" x2="397.97" y2="413.68"/><polyline class="cls-1" points="40.61 367.83 60.46 379.3 80.31 390.76 100.17 379.3 120.02 367.83"/><polyline class="cls-1" points="80.31 436.61 80.31 413.68 100.17 402.22"/><polyline class="cls-1" points="100.17 379.3 100.17 425.15 80.31 436.61 60.46 425.15 40.61 413.68"/><polyline class="cls-1" points="60.46 425.15 60.46 379.3 100.17 356.37 120.02 367.83 120.02 390.76 120.02 413.68"/><polyline class="cls-1" points="80.31 413.68 40.61 390.76 40.61 367.83 60.46 356.37 80.31 344.91"/><polyline class="cls-1" points="199.43 390.76 199.43 367.83 219.29 356.37 239.14 344.91"/><polyline class="cls-1" points="199.43 367.83 219.29 379.3 239.14 390.76 258.99 379.3 278.85 367.83"/><polyline class="cls-1" points="239.14 436.61 239.14 413.68 258.99 402.22"/><polyline class="cls-1" points="258.99 379.3 258.99 425.15 239.14 436.61 219.29 425.15 199.43 413.68"/><polyline class="cls-1" points="219.29 425.15 219.29 379.3 258.99 356.37 278.85 367.83 278.85 390.76 278.85 413.68"/><line class="cls-1" x1="199.43" y1="390.76" x2="239.14" y2="413.68"/><polyline class="cls-1" points="477.38 299.06 457.53 310.52 437.67 321.99 417.82 310.52 397.97 299.06"/><polyline class="cls-1" points="437.67 367.83 437.67 344.91 417.82 333.45"/><polyline class="cls-1" points="417.82 310.52 417.82 356.37 437.67 367.83 457.53 356.37 477.38 344.91"/><polyline class="cls-1" points="457.53 356.37 457.53 310.52 417.82 287.6 397.97 299.06 397.97 321.99 397.97 344.91"/><polyline class="cls-1" points="437.67 344.91 477.38 321.99 477.38 299.06 457.53 287.6 437.67 276.14"/><polyline class="cls-1" points="159.73 321.99 159.73 299.06 139.87 287.6 120.02 276.14"/><polyline class="cls-1" points="159.73 299.06 139.87 310.52 120.02 321.99 100.17 310.52 80.31 299.06"/><polyline class="cls-1" points="120.02 367.83 120.02 344.91 100.17 333.45"/><polyline class="cls-1" points="100.17 310.52 100.17 356.37 120.02 367.83 139.87 356.37 159.73 344.91"/><polyline class="cls-1" points="139.87 356.37 139.87 310.52 100.17 287.6 80.31 299.06 80.31 321.99 80.31 344.91"/><line class="cls-1" x1="159.73" y1="321.98" x2="120.02" y2="344.91"/></g></g></svg>