<?xml version="1.0" encoding="utf-8"?>
<!-- Generator: Adobe Illustrator 19.2.0, SVG Export Plug-In . SVG Version: 6.00 Build 0)  -->
<svg version="1.1" id="Layer_1" xmlns="http://www.w3.org/2000/svg" xmlns:xlink="http://www.w3.org/1999/xlink" x="0px" y="0px"
	 viewBox="0 0 258.7 275.947" style="enable-background:new 0 0 258.7 275.947;" xml:space="preserve">
<style type="text/css">
	.st0{fill:none;stroke:#232829;stroke-width:11.981;stroke-linejoin:round;stroke-miterlimit:10;}
	.st1{fill:#6368B0;stroke:#232829;stroke-width:11.1667;stroke-miterlimit:10;}
	.st2{fill:#6368B0;stroke:#232829;stroke-width:5.053;stroke-miterlimit:10;}
</style>
<g>
	<polyline class="st0" points="250.402,191.745 232.608,173.951 214.813,191.745 	"/>
	<polyline class="st0" points="73.198,28.316 90.993,46.11 73.198,63.905 	"/>
	<polyline class="st0" points="232.608,177.565 232.608,247.631 130.289,247.631 	"/>
	<line class="st0" x1="6.469" y1="46.11" x2="90.993" y2="46.11"/>
	<path class="st1" d="M186.203,158.701c0-0.841-0.09-1.663-0.127-2.492l14.249-9.764c-1.166-6.707-6.177-18.997-6.177-18.997
		l-17.197,0.476c-0.931-1.404-1.931-2.76-2.978-4.075l5.781-16.247c-4.781-4.632-10.194-8.603-16.123-11.755l-13.711,10.554
		c-1.558-0.586-3.147-1.107-4.77-1.554l-4.867-16.525c-3.273-0.462-6.592-0.784-9.992-0.784c-3.4,0-6.719,0.323-9.992,0.784
		l-4.867,16.525c-1.623,0.447-3.212,0.968-4.77,1.554L96.948,95.848C91.019,99,85.606,102.97,80.826,107.603l5.781,16.247
		c-1.048,1.315-2.048,2.671-2.979,4.075l-17.197-0.476c-2.907,5.921-5.011,12.29-6.177,18.997l14.249,9.764
		c-0.037,0.829-0.127,1.651-0.127,2.492c0,0.844,0.09,1.663,0.127,2.491l-14.249,9.764c1.166,6.708,3.271,13.075,6.177,18.998
		l17.197-0.477c0.931,1.405,1.931,2.76,2.979,4.075L80.826,209.8c4.783,4.632,10.194,8.603,16.123,11.755l13.711-10.552
		c1.558,0.585,3.147,1.107,4.77,1.553l4.867,16.525c3.273,0.462,6.592,0.784,9.992,0.784c3.4,0,6.719-0.323,9.992-0.784
		l4.867-16.525c1.623-0.446,3.212-0.968,4.77-1.553l13.711,10.552c5.93-3.152,11.34-7.123,16.123-11.755l-5.781-16.247
		c1.047-1.315,2.048-2.67,2.978-4.075l17.197,0.477c2.907-5.922,5.011-12.29,6.177-18.998l-14.249-9.764
		C186.113,160.364,186.203,159.545,186.203,158.701z M130.289,189.416c-16.846,0-30.503-13.657-30.503-30.503
		s13.657-30.503,30.503-30.503c16.847,0,30.503,13.657,30.503,30.503S147.136,189.416,130.289,189.416z"/>
	<path class="st2" d="M246.276,83.368c0-0.355-0.038-0.701-0.053-1.051l6.009-4.118c-0.492-2.829-2.605-8.012-2.605-8.012
		l-7.253,0.201c-0.393-0.592-0.814-1.164-1.256-1.719l2.438-6.852c-2.016-1.954-4.299-3.628-6.8-4.958l-5.782,4.451
		c-0.657-0.247-1.327-0.467-2.012-0.655l-2.053-6.969c-1.381-0.195-2.78-0.331-4.214-0.331s-2.834,0.136-4.214,0.331l-2.053,6.969
		c-0.685,0.189-1.355,0.408-2.012,0.655l-5.783-4.451c-2.501,1.329-4.784,3.004-6.8,4.958l2.438,6.852
		c-0.442,0.555-0.864,1.126-1.256,1.719l-7.253-0.201c-1.226,2.497-2.113,5.183-2.605,8.012l6.009,4.118
		c-0.016,0.35-0.053,0.696-0.053,1.051c0,0.356,0.038,0.701,0.053,1.051l-6.009,4.118c0.492,2.829,1.379,5.515,2.605,8.012
		l7.253-0.201c0.393,0.593,0.814,1.164,1.256,1.719l-2.438,6.852c2.017,1.954,4.299,3.628,6.8,4.958l5.783-4.451
		c0.657,0.247,1.327,0.467,2.012,0.655l2.053,6.969c1.381,0.195,2.78,0.331,4.214,0.331s2.834-0.136,4.214-0.331l2.053-6.969
		c0.685-0.188,1.355-0.408,2.012-0.655l5.782,4.451c2.501-1.329,4.783-3.004,6.8-4.958l-2.438-6.852
		c0.442-0.555,0.864-1.126,1.256-1.719l7.253,0.201c1.226-2.498,2.113-5.183,2.605-8.012l-6.009-4.118
		C246.238,84.069,246.276,83.724,246.276,83.368z M222.694,97.26c-7.623,0-13.803-6.18-13.803-13.803s6.18-13.803,13.803-13.803
		c7.623,0,13.803,6.18,13.803,13.803S230.317,97.26,222.694,97.26z"/>
</g>
</svg>
