<?xml version="1.0" encoding="utf-8"?>
<!-- Generator: Adobe Illustrator 19.2.0, SVG Export Plug-In . SVG Version: 6.00 Build 0)  -->
<svg version="1.1" id="Layer_1" xmlns="http://www.w3.org/2000/svg" xmlns:xlink="http://www.w3.org/1999/xlink" x="0px" y="0px"
	 viewBox="0 0 258.7 275.947" style="enable-background:new 0 0 258.7 275.947;" xml:space="preserve">
<style type="text/css">
	.st0{fill:none;stroke:#6368B0;stroke-width:10.7557;stroke-miterlimit:10;}
	.st1{fill:none;stroke:#6368B0;stroke-width:6.7223;stroke-miterlimit:10;}
</style>
<g>
	<g>
		<circle class="st0" cx="92.669" cy="178.001" r="64.534"/>
		<g>
			<g>
				<g>
					<line class="st0" x1="70.614" y1="238.649" x2="63.262" y2="258.865"/>
					<line class="st0" x1="114.725" y1="117.353" x2="122.076" y2="97.137"/>
				</g>
			</g>
			<g>
				<g>
					<line class="st0" x1="51.199" y1="227.447" x2="37.376" y2="243.929"/>
					<line class="st0" x1="134.139" y1="128.555" x2="147.962" y2="112.073"/>
				</g>
			</g>
			<g>
				<g>
					<line class="st0" x1="36.788" y1="210.279" x2="18.161" y2="221.039"/>
					<line class="st0" x1="148.551" y1="145.722" x2="167.178" y2="134.963"/>
				</g>
			</g>
			<g>
				<g>
					<line class="st0" x1="29.118" y1="189.218" x2="7.934" y2="192.957"/>
					<line class="st0" x1="156.221" y1="166.784" x2="177.405" y2="163.045"/>
				</g>
			</g>
			<g>
				<g>
					<line class="st0" x1="29.114" y1="166.803" x2="7.929" y2="163.071"/>
					<line class="st0" x1="156.224" y1="189.198" x2="177.409" y2="192.931"/>
				</g>
			</g>
			<g>
				<g>
					<line class="st0" x1="36.778" y1="145.74" x2="18.147" y2="134.986"/>
					<line class="st0" x1="148.561" y1="210.262" x2="167.191" y2="221.016"/>
				</g>
			</g>
			<g>
				<g>
					<line class="st0" x1="51.184" y1="128.568" x2="37.356" y2="112.09"/>
					<line class="st0" x1="134.154" y1="227.434" x2="147.983" y2="243.912"/>
				</g>
			</g>
			<g>
				<g>
					<line class="st0" x1="70.595" y1="117.36" x2="63.237" y2="97.146"/>
					<line class="st0" x1="114.743" y1="238.642" x2="122.101" y2="258.856"/>
				</g>
			</g>
			<g>
				<g>
					<line class="st0" x1="92.669" y1="113.467" x2="92.669" y2="91.956"/>
					<line class="st0" x1="92.669" y1="242.535" x2="92.669" y2="264.046"/>
				</g>
			</g>
		</g>
		<circle class="st0" cx="92.669" cy="178.001" r="21.511"/>
		<path class="st0" d="M49.647,178.001c0-23.78,19.242-43.023,43.023-43.023"/>
		<path class="st0" d="M135.692,178.001c0,23.78-19.242,43.023-43.023,43.023"/>
	</g>
	<g>
		<circle class="st1" cx="190.231" cy="65.679" r="40.334"/>
		<g>
			<g>
				<g>
					<line class="st1" x1="176.447" y1="103.584" x2="171.852" y2="116.219"/>
					<line class="st1" x1="204.016" y1="27.774" x2="208.611" y2="15.139"/>
				</g>
			</g>
			<g>
				<g>
					<line class="st1" x1="164.313" y1="96.583" x2="155.673" y2="106.884"/>
					<line class="st1" x1="216.15" y1="34.775" x2="224.79" y2="24.474"/>
				</g>
			</g>
			<g>
				<g>
					<line class="st1" x1="155.305" y1="85.853" x2="143.663" y2="92.578"/>
					<line class="st1" x1="225.157" y1="45.505" x2="236.799" y2="38.78"/>
				</g>
			</g>
			<g>
				<g>
					<line class="st1" x1="150.512" y1="72.69" x2="137.272" y2="75.027"/>
					<line class="st1" x1="229.951" y1="58.668" x2="243.191" y2="56.331"/>
				</g>
			</g>
			<g>
				<g>
					<line class="st1" x1="150.509" y1="58.681" x2="137.269" y2="56.348"/>
					<line class="st1" x1="229.953" y1="72.677" x2="243.194" y2="75.01"/>
				</g>
			</g>
			<g>
				<g>
					<line class="st1" x1="155.299" y1="45.516" x2="143.655" y2="38.795"/>
					<line class="st1" x1="225.163" y1="85.842" x2="236.807" y2="92.563"/>
				</g>
			</g>
			<g>
				<g>
					<line class="st1" x1="164.303" y1="34.783" x2="155.66" y2="24.485"/>
					<line class="st1" x1="216.159" y1="96.575" x2="224.802" y2="106.873"/>
				</g>
			</g>
			<g>
				<g>
					<line class="st1" x1="176.435" y1="27.778" x2="171.836" y2="15.145"/>
					<line class="st1" x1="204.028" y1="103.58" x2="208.626" y2="116.214"/>
				</g>
			</g>
			<g>
				<g>
					<line class="st1" x1="190.231" y1="25.345" x2="190.231" y2="11.901"/>
					<line class="st1" x1="190.231" y1="106.013" x2="190.231" y2="119.457"/>
				</g>
			</g>
		</g>
		<circle class="st1" cx="190.231" cy="65.679" r="13.445"/>
		<path class="st1" d="M163.342,65.679c0-14.863,12.027-26.889,26.889-26.889"/>
		<path class="st1" d="M217.12,65.679c0,14.863-12.027,26.889-26.889,26.889"/>
	</g>
</g>
</svg>
