<?xml version="1.0" encoding="utf-8"?>
<!-- Generator: Adobe Illustrator 19.2.0, SVG Export Plug-In . SVG Version: 6.00 Build 0)  -->
<svg version="1.1" id="Layer_1" xmlns="http://www.w3.org/2000/svg" xmlns:xlink="http://www.w3.org/1999/xlink" x="0px" y="0px"
	 viewBox="0 0 22 22" style="enable-background:new 0 0 22 22;" xml:space="preserve">
<style type="text/css">
	.st0{fill:#231F20;}
</style>
<path class="st0" d="M22,12.5v-3h-2.641c-0.22-1.228-0.7-2.364-1.388-3.35l1.868-1.868l-2.121-2.121L15.85,4.029
	c-0.986-0.687-2.122-1.168-3.35-1.388V0h-3v2.641c-1.228,0.22-2.364,0.701-3.35,1.388L4.282,2.161L2.161,4.282L4.029,6.15
	C3.341,7.136,2.861,8.272,2.641,9.5H0v3h2.641c0.22,1.228,0.7,2.365,1.388,3.35l-1.868,1.868l2.121,2.121l1.868-1.868
	c0.986,0.688,2.122,1.169,3.35,1.388V22h3v-2.641c1.228-0.219,2.364-0.7,3.35-1.388l1.868,1.868l2.121-2.121l-1.868-1.868
	c0.688-0.985,1.168-2.122,1.388-3.35H22z M11,16.5c-3.032,0-5.5-2.468-5.5-5.5c0-3.032,2.468-5.5,5.5-5.5c3.032,0,5.5,2.468,5.5,5.5
	C16.5,14.032,14.032,16.5,11,16.5"/>
<circle class="st0" cx="11" cy="11" r="1.502"/>
</svg>
