<?xml version="1.0" encoding="utf-8"?>
<!-- Generator: Adobe Illustrator 19.2.0, SVG Export Plug-In . SVG Version: 6.00 Build 0)  -->
<svg version="1.1" id="Layer_1" xmlns="http://www.w3.org/2000/svg" xmlns:xlink="http://www.w3.org/1999/xlink" x="0px" y="0px"
	 viewBox="0 0 22 22" style="enable-background:new 0 0 22 22;" xml:space="preserve">
<style type="text/css">
	.st0{fill:#231F20;}
</style>
<path class="st0" d="M3,12.895c0,1.94,0.69,3.8,1.96,5.24l-2.26,1.97c-1.74-1.99-2.7-4.55-2.7-7.21c0-6.06,4.93-11,11-11
	c1.41,0,2.75,0.26,3.98,0.75l-2.4,2.4c-0.51-0.1-1.04-0.15-1.58-0.15C6.59,4.895,3,8.485,3,12.895 M19.8,6.305
	c-0.6-0.81-1.31-1.53-2.11-2.13l-5.92,5.92l-0.002,0.002C11.522,10.031,11.267,9.985,11,9.985c-1.657,0-3,1.343-3,3s1.343,3,3,3
	s3-1.343,3-3c0-0.267-0.046-0.522-0.112-0.768L19.8,6.305z M21.3,9.045l-2.43,2.43c0.09,0.46,0.13,0.93,0.13,1.42
	c0,1.94-0.69,3.8-1.96,5.24l2.26,1.97c1.74-1.99,2.7-4.55,2.7-7.21C22,11.545,21.75,10.245,21.3,9.045"/>
</svg>
