<?xml version="1.0" encoding="utf-8"?>
<!-- Generator: Adobe Illustrator 19.2.0, SVG Export Plug-In . SVG Version: 6.00 Build 0)  -->
<svg version="1.1" id="Layer_1" xmlns="http://www.w3.org/2000/svg" xmlns:xlink="http://www.w3.org/1999/xlink" x="0px" y="0px"
	 viewBox="0 0 258.7 275.947" style="enable-background:new 0 0 258.7 275.947;" xml:space="preserve">
<style type="text/css">
	.st0{fill:none;stroke:#232829;stroke-width:11.981;stroke-miterlimit:10;}
	.st1{fill:#6368B0;stroke:#232829;stroke-width:5.9905;stroke-miterlimit:10;}
	.st2{fill:#232829;}
</style>
<g>
	<path class="st0" d="M175.49,107.568c19.225,0,38.45,23.07,38.45,46.14c19.225,0,34.605,19.428,34.605,42.295
		c0,25.482-20.659,46.14-46.14,46.14H56.295c-25.481,0-46.14-20.658-46.14-46.14c0-25.481,20.659-46.14,46.14-46.14l0,0"/>
	<g>
		<path class="st1" d="M116.879,111.829c-4.764,0-8.626,3.862-8.626,8.626v61.316c0,4.764,3.862,8.626,8.626,8.626
			c4.764,0,8.626-3.862,8.626-8.626v-61.316C125.505,115.691,121.643,111.829,116.879,111.829z"/>
		<path class="st1" d="M71.42,128.555c-4.764,0-8.626,3.862-8.626,8.626v44.59c0,4.764,3.862,8.626,8.626,8.626
			c4.764,0,8.626-3.862,8.626-8.626v-44.59C80.046,132.417,76.184,128.555,71.42,128.555z"/>
		<path class="st1" d="M160.718,68.809c-4.764,0-8.626,3.862-8.626,8.626v104.336c0,4.764,3.862,8.626,8.626,8.626
			c4.764,0,8.626-3.862,8.626-8.626V77.435C169.344,72.671,165.482,68.809,160.718,68.809z"/>
	</g>
	<path class="st2" d="M160.388,56.024c-3.076,0.615-6.114-0.077-8.498-1.654l-27.376,27.685c0.5,0.922,0.884,1.96,1.115,3.037
		c1.23,6.075-2.691,11.997-8.766,13.265c-4.922,1.001-9.766-1.384-12.073-5.575l-24.493,9.036
		c1.269,6.074-2.653,11.996-8.728,13.265c-6.075,1.231-11.996-2.691-13.265-8.767c-1.23-6.074,2.691-11.996,8.766-13.227
		c4.653-0.923,9.19,1.115,11.65,4.845l24.8-9.19c-0.769-5.767,3.038-11.189,8.844-12.38c3.499-0.693,6.959,0.268,9.497,2.422
		l27.03-27.377c-0.846-1.192-1.461-2.576-1.769-4.113c-1.23-6.075,2.692-12.035,8.767-13.266c6.075-1.23,11.996,2.692,13.227,8.767
		C170.346,48.872,166.463,54.793,160.388,56.024z"/>
	<line class="st0" x1="68.196" y1="210.472" x2="141.972" y2="210.472"/>
	<path class="st0" d="M68.196,210.472"/>
	<line class="st0" x1="149.662" y1="210.472" x2="157.352" y2="210.472"/>
	<line class="st0" x1="165.042" y1="210.472" x2="172.732" y2="210.472"/>
</g>
</svg>
