<?xml version="1.0" encoding="utf-8"?>
<!-- Generator: Adobe Illustrator 19.2.0, SVG Export Plug-In . SVG Version: 6.00 Build 0)  -->
<svg version="1.1" id="Layer_1" xmlns="http://www.w3.org/2000/svg" xmlns:xlink="http://www.w3.org/1999/xlink" x="0px" y="0px"
	 viewBox="0 0 258.7 275.947" style="enable-background:new 0 0 258.7 275.947;" xml:space="preserve">
<style type="text/css">
	.st0{fill:none;stroke:#6368B0;stroke-width:17.2467;stroke-miterlimit:10;}
</style>
<g>
	<g>
		<ellipse class="st0" cx="68.987" cy="155.22" rx="60.363" ry="25.87"/>
		<path class="st0" d="M8.623,155.22v43.117c0,14.288,27.026,25.87,60.363,25.87s60.363-11.582,60.363-25.87V155.22"/>
		<path class="st0" d="M8.623,198.337v43.117c0,14.288,27.026,25.87,60.363,25.87s60.363-11.582,60.363-25.87v-43.117"/>
		<ellipse class="st0" cx="189.714" cy="34.493" rx="60.363" ry="25.87"/>
		<path class="st0" d="M129.35,34.493V77.61c0,14.288,27.026,25.87,60.363,25.87s60.363-11.582,60.363-25.87V34.493"/>
		<path class="st0" d="M189.714,146.597c33.338,0,60.363-11.582,60.363-25.87V77.61"/>
		<path class="st0" d="M129.35,112.103"/>
		<line class="st0" x1="129.35" y1="112.103" x2="129.35" y2="77.61"/>
		<path class="st0" d="M189.714,189.714c33.338,0,60.363-11.582,60.363-25.87v-43.117"/>
	</g>
	<g>
		<path class="st0" d="M189.714,189.714c-9.273,0-18.023-0.919-25.87-2.517"/>
		<g>
			<path class="st0" d="M189.714,146.597c-9.273,0-18.023-0.919-25.87-2.517"/>
		</g>
	</g>
</g>
</svg>
