<?xml version="1.0" encoding="utf-8"?>
<!-- Generator: Adobe Illustrator 19.2.0, SVG Export Plug-In . SVG Version: 6.00 Build 0)  -->
<svg version="1.1" id="Layer_1" xmlns="http://www.w3.org/2000/svg" xmlns:xlink="http://www.w3.org/1999/xlink" x="0px" y="0px"
	 viewBox="0 0 258.7 275.947" style="enable-background:new 0 0 258.7 275.947;" xml:space="preserve">
<style type="text/css">
	.st0{fill:none;stroke:#1C1D21;stroke-width:6.9219;stroke-linecap:round;stroke-linejoin:round;stroke-miterlimit:10;}
	.st1{fill:none;stroke:#1C1D21;stroke-width:6.3741;stroke-linecap:round;stroke-linejoin:round;stroke-miterlimit:10;}
	.st2{fill:#6368B0;}
	.st3{fill:#ABB2BB;}
</style>
<g>
	<path class="st0" d="M219.443,228.88v30.549c0,3.554-2.882,6.435-6.436,6.435H45.693c-3.555,0-6.436-2.882-6.436-6.435v-34.84"/>
	<path class="st0" d="M39.257,25.888v-9.37c0-3.554,2.881-6.436,6.436-6.436h139.881l33.87,33.87v195.561"/>
	<line class="st1" x1="53.51" y1="45.43" x2="53.51" y2="38.777"/>
	<line class="st1" x1="53.51" y1="58.114" x2="53.51" y2="55.827"/>
	<polygon class="st2" points="219.443,43.952 185.573,43.952 185.573,10.082 	"/>
	<polygon class="st0" points="219.443,43.952 185.573,43.952 185.573,10.082 	"/>
	<line class="st0" x1="76.121" y1="62.241" x2="182.579" y2="62.241"/>
	<line class="st0" x1="76.121" y1="82.564" x2="182.579" y2="82.564"/>
	<line class="st0" x1="76.121" y1="102.885" x2="171.009" y2="102.885"/>
	<line class="st0" x1="76.121" y1="123.207" x2="154.075" y2="123.207"/>
	<line class="st0" x1="76.121" y1="143.528" x2="143.575" y2="143.528"/>
	<line class="st0" x1="76.121" y1="163.85" x2="143.575" y2="163.85"/>
	<line class="st0" x1="76.121" y1="184.172" x2="182.579" y2="184.172"/>
	<line class="st0" x1="76.121" y1="204.493" x2="182.579" y2="204.493"/>
	<path class="st2" d="M61.29,187.565V95.71L53.51,72.461L45.728,95.71v91.855c0,4.297,3.484,7.781,7.782,7.781l0,0
		C57.807,195.346,61.29,191.862,61.29,187.565z"/>
	<polygon class="st3" points="61.29,95.71 53.51,72.461 45.728,95.71 	"/>
	<path class="st1" d="M61.29,187.565V95.71L53.51,72.461L45.728,95.71v91.855c0,4.297,3.484,7.781,7.782,7.781l0,0
		C57.807,195.346,61.29,191.862,61.29,187.565z"/>
	<polygon class="st1" points="61.29,95.71 53.51,72.461 45.728,95.71 	"/>
</g>
</svg>
