<?xml version="1.0" encoding="utf-8"?>
<!-- Generator: Adobe Illustrator 19.2.0, SVG Export Plug-In . SVG Version: 6.00 Build 0)  -->
<svg version="1.1" id="Layer_1" xmlns="http://www.w3.org/2000/svg" xmlns:xlink="http://www.w3.org/1999/xlink" x="0px" y="0px"
	 viewBox="0 0 22 22" style="enable-background:new 0 0 22 22;" xml:space="preserve">
<style type="text/css">
	.st0{fill:#231F20;}
</style>
<path class="st0" d="M11,0C6.003,0,1.936,4.067,1.936,9.064c0,3.182,1.652,5.981,4.14,7.599V22L11,19.745L15.925,22v-5.337
	c2.488-1.617,4.14-4.416,4.14-7.599C20.064,4.067,15.997,0,11,0 M11,15.173c-3.368,0-6.109-2.74-6.109-6.108S7.632,2.955,11,2.955
	c3.368,0,6.109,2.741,6.109,6.109S14.368,15.173,11,15.173 M14.447,7.824l-1.58,1.727l0.263,2.325L11,10.907l-2.13,0.969
	l0.263-2.325l-1.58-1.727l2.293-0.469L11,5.32l1.154,2.036L14.447,7.824z"/>
</svg>
