<?xml version="1.0" encoding="utf-8"?>
<!-- Generator: Adobe Illustrator 19.2.0, SVG Export Plug-In . SVG Version: 6.00 Build 0)  -->
<svg version="1.1" id="Layer_1" xmlns="http://www.w3.org/2000/svg" xmlns:xlink="http://www.w3.org/1999/xlink" x="0px" y="0px"
	 viewBox="0 0 258.7 275.947" style="enable-background:new 0 0 258.7 275.947;" xml:space="preserve">
<style type="text/css">
	.st0{fill:#6368B0;}
	.st1{fill:none;stroke:#1C1D21;stroke-width:7.4047;stroke-linecap:round;stroke-linejoin:round;stroke-miterlimit:10;}
	.st2{fill:#EDF5F7;}
</style>
<g>
	<path class="st0" d="M108.078,7.107L108.078,7.107c-9.473,0-17.152,7.679-17.152,17.151v16.75h34.302v-16.75
		C125.229,14.786,117.55,7.107,108.078,7.107z M114.546,25.327c0,3.351-2.716,6.066-6.066,6.066h-0.993
		c-3.246,0-5.877-2.631-5.877-5.876v-1.069c0-3.366,2.493-6.313,5.845-6.629c3.845-0.362,7.091,2.667,7.091,6.439V25.327z"/>
	<path class="st0" d="M70.081,95.588h-13.46c-1.567,0-2.837-1.27-2.837-2.836v-13.46c0-1.566,1.27-2.837,2.837-2.837h13.46
		c1.566,0,2.836,1.271,2.836,2.837v13.46C72.917,94.318,71.648,95.588,70.081,95.588z"/>
	<path class="st0" d="M70.081,134.289h-13.46c-1.567,0-2.837-1.27-2.837-2.837v-13.46c0-1.566,1.27-2.836,2.837-2.836h13.46
		c1.566,0,2.836,1.27,2.836,2.836v13.46C72.917,133.019,71.648,134.289,70.081,134.289z"/>
	<path class="st0" d="M70.081,172.989h-13.46c-1.567,0-2.837-1.27-2.837-2.836v-13.46c0-1.566,1.27-2.837,2.837-2.837h13.46
		c1.566,0,2.836,1.271,2.836,2.837v13.46C72.917,171.719,71.648,172.989,70.081,172.989z"/>
	<path class="st0" d="M70.081,211.69h-13.46c-1.567,0-2.837-1.27-2.837-2.836v-13.461c0-1.566,1.27-2.836,2.837-2.836h13.46
		c1.566,0,2.836,1.27,2.836,2.836v13.461C72.917,210.42,71.648,211.69,70.081,211.69z"/>
	<path class="st1" d="M145.81,49.623h21.786c5.886,0,10.658,4.771,10.658,10.659v112.708"/>
	<path class="st1" d="M37.901,82.246V60.281c0-5.887,4.771-10.659,10.658-10.659h22.112"/>
	<line class="st1" x1="37.901" y1="95.588" x2="37.901" y2="92.047"/>
	<path class="st1" d="M125.964,238.522H48.559c-5.886,0-10.658-4.771-10.658-10.658V106.421"/>
	<circle class="st0" cx="177.872" cy="225.912" r="42.927"/>
	<circle class="st1" cx="177.872" cy="225.912" r="42.927"/>
	<path class="st1" d="M126.741,58.237H89.414c-4.758,0-8.614-3.857-8.614-8.614l0,0c0-4.757,3.856-8.614,8.614-8.614h37.328
		c4.758,0,8.614,3.857,8.614,8.614l0,0C135.356,54.38,131.5,58.237,126.741,58.237z"/>
	<path class="st1" d="M70.081,95.588h-13.46c-1.567,0-2.837-1.27-2.837-2.836v-13.46c0-1.566,1.27-2.837,2.837-2.837h13.46
		c1.566,0,2.836,1.271,2.836,2.837v13.46C72.917,94.318,71.648,95.588,70.081,95.588z"/>
	<path class="st1" d="M70.081,134.289h-13.46c-1.567,0-2.837-1.27-2.837-2.837v-13.46c0-1.566,1.27-2.836,2.837-2.836h13.46
		c1.566,0,2.836,1.27,2.836,2.836v13.46C72.917,133.019,71.648,134.289,70.081,134.289z"/>
	<path class="st1" d="M70.081,172.989h-13.46c-1.567,0-2.837-1.27-2.837-2.836v-13.46c0-1.566,1.27-2.837,2.837-2.837h13.46
		c1.566,0,2.836,1.271,2.836,2.837v13.46C72.917,171.719,71.648,172.989,70.081,172.989z"/>
	<path class="st1" d="M70.081,211.69h-13.46c-1.567,0-2.837-1.27-2.837-2.836v-13.461c0-1.566,1.27-2.836,2.837-2.836h13.46
		c1.566,0,2.836,1.27,2.836,2.836v13.461C72.917,210.42,71.648,211.69,70.081,211.69z"/>
	<line class="st1" x1="93.376" y1="86.022" x2="151.691" y2="86.022"/>
	<line class="st1" x1="93.376" y1="124.722" x2="151.691" y2="124.722"/>
	<line class="st1" x1="93.376" y1="163.423" x2="151.691" y2="163.423"/>
	<line class="st1" x1="93.376" y1="202.122" x2="128.414" y2="202.122"/>
	<g>
		<path class="st2" d="M172.518,246.752c-1.501,0-2.942-0.597-4.004-1.659l-15.727-15.727c-2.211-2.211-2.211-5.797,0-8.008
			c2.212-2.211,5.797-2.211,8.008,0l11.722,11.722l22.43-22.43c2.212-2.211,5.797-2.211,8.008,0c2.211,2.212,2.211,5.797,0,8.008
			l-26.434,26.434C175.46,246.155,174.02,246.752,172.518,246.752z"/>
	</g>
	<g>
		<path class="st1" d="M172.518,246.752c-1.501,0-2.942-0.597-4.004-1.659l-15.727-15.727c-2.211-2.211-2.211-5.797,0-8.008
			c2.212-2.211,5.797-2.211,8.008,0l11.722,11.722l22.43-22.43c2.212-2.211,5.797-2.211,8.008,0c2.211,2.212,2.211,5.797,0,8.008
			l-26.434,26.434C175.46,246.155,174.02,246.752,172.518,246.752z"/>
	</g>
	<path class="st1" d="M108.078,7.107L108.078,7.107c-9.473,0-17.152,7.679-17.152,17.151v16.75h34.302v-16.75
		C125.229,14.786,117.55,7.107,108.078,7.107z"/>
	<path class="st1" d="M114.546,25.327c0,3.351-2.716,6.066-6.066,6.066h-0.993c-3.246,0-5.877-2.631-5.877-5.876v-1.069
		c0-3.366,2.493-6.313,5.845-6.629c3.845-0.362,7.091,2.667,7.091,6.439V25.327z"/>
</g>
</svg>
